#define LoginAT_logo_width 64
#define LoginAT_logo_height 64
static unsigned char LoginAT_logo_bits[] = {
   0x00, 0x00, 0x00, 0x00, 0x00, 0x00, 0x00, 0x00, 0x00, 0x00, 0x28, 0x01,
   0x00, 0x00, 0x00, 0x00, 0x00, 0xc0, 0xff, 0x1f, 0x00, 0x00, 0x00, 0x00,
   0x00, 0xfc, 0xaf, 0xfe, 0x00, 0x00, 0x00, 0x00, 0x00, 0x7c, 0x00, 0xe0,
   0x03, 0x00, 0x00, 0x00, 0x80, 0x0f, 0x00, 0x00, 0x0f, 0x00, 0x00, 0x00,
   0x80, 0x03, 0x00, 0x00, 0x3e, 0x00, 0x00, 0x00, 0xe0, 0x01, 0x00, 0x00,
   0x3c, 0x00, 0x00, 0x00, 0x60, 0x00, 0xb4, 0x00, 0x78, 0x00, 0x00, 0x00,
   0x78, 0x80, 0xfc, 0x0b, 0x78, 0x00, 0x00, 0x00, 0x30, 0x00, 0x4f, 0x1f,
   0xf0, 0x00, 0x00, 0x00, 0x3c, 0xc0, 0x47, 0x3c, 0xf0, 0x00, 0x00, 0x00,
   0x18, 0xa0, 0xf1, 0x78, 0xe0, 0x01, 0x00, 0x00, 0x1c, 0xe0, 0xf8, 0x79,
   0xc0, 0x01, 0x00, 0x00, 0x1c, 0xe0, 0xdc, 0x3b, 0xc0, 0x03, 0x00, 0x00,
   0x1c, 0xe0, 0xf8, 0x3f, 0xc0, 0x01, 0x00, 0x00, 0x1c, 0xc2, 0x7f, 0x01,
   0xc0, 0x03, 0x00, 0x00, 0x18, 0x80, 0x7f, 0x03, 0x80, 0x01, 0x00, 0x00,
   0x38, 0x00, 0xff, 0x01, 0xc0, 0x03, 0x00, 0x00, 0x38, 0x00, 0x7c, 0x01,
   0xc0, 0x01, 0x00, 0x00, 0x70, 0x00, 0x00, 0x00, 0xe0, 0x01, 0x00, 0x00,
   0xf0, 0x00, 0x00, 0x00, 0xe0, 0x00, 0x00, 0x00, 0x60, 0x00, 0x00, 0x00,
   0x70, 0x00, 0x00, 0x00, 0xc0, 0x03, 0x00, 0x00, 0x74, 0x00, 0x00, 0x00,
   0x80, 0x03, 0x00, 0x00, 0x3c, 0x00, 0x00, 0x00, 0x00, 0x1f, 0x00, 0x00,
   0x1e, 0x00, 0x00, 0x00, 0x00, 0x7c, 0x01, 0xc0, 0x0f, 0x00, 0x00, 0x00,
   0x00, 0xe0, 0x03, 0xf0, 0x03, 0x00, 0x00, 0x00, 0x00, 0xc0, 0x03, 0xfe,
   0x00, 0x00, 0x00, 0x00, 0x00, 0x80, 0x03, 0x1e, 0x00, 0x00, 0x00, 0x00,
   0x00, 0x80, 0x83, 0x07, 0x00, 0x00, 0x00, 0x00, 0x00, 0x80, 0x03, 0x07,
   0x00, 0x00, 0x00, 0x00, 0x00, 0x00, 0x03, 0x03, 0x00, 0x00, 0x00, 0x00,
   0x00, 0x80, 0x03, 0x03, 0x00, 0x00, 0x00, 0x00, 0x00, 0x00, 0x03, 0x03,
   0x00, 0x00, 0x00, 0x00, 0x00, 0x00, 0x03, 0x03, 0x00, 0x00, 0x00, 0x00,
   0x00, 0x00, 0x03, 0x07, 0x00, 0x00, 0x00, 0x00, 0x00, 0x00, 0x03, 0x02,
   0x00, 0x00, 0x00, 0x00, 0x00, 0x00, 0x03, 0x07, 0x00, 0x00, 0x00, 0x00,
   0x00, 0x80, 0x03, 0x02, 0x00, 0x00, 0x00, 0x00, 0x00, 0x00, 0x03, 0x06,
   0x00, 0x00, 0x00, 0x00, 0x00, 0xc0, 0x03, 0x02, 0x00, 0x00, 0x00, 0x00,
   0x00, 0xc0, 0x03, 0x07, 0x00, 0x00, 0x00, 0x00, 0x00, 0x80, 0x03, 0x02,
   0x02, 0x00, 0x00, 0x00, 0x00, 0x00, 0x03, 0x87, 0x1f, 0x00, 0x00, 0x00,
   0x00, 0x80, 0x03, 0xc2, 0x11, 0x00, 0x00, 0x00, 0x00, 0x80, 0x03, 0x86,
   0x3f, 0xf8, 0xfc, 0x01, 0x00, 0xc0, 0x01, 0x86, 0x1f, 0xf8, 0x0f, 0x03,
   0x00, 0x80, 0x03, 0xc7, 0x1f, 0xf8, 0x03, 0x06, 0x00, 0x80, 0x03, 0xe2,
   0x0f, 0x18, 0x3c, 0x06, 0x00, 0x80, 0x03, 0x7f, 0x1c, 0x58, 0x3f, 0x0e,
   0x00, 0xc0, 0x07, 0xff, 0x1d, 0x98, 0x77, 0x0c, 0x00, 0x00, 0x03, 0xff,
   0x1b, 0xd8, 0x73, 0x0e, 0x00, 0x00, 0x07, 0xff, 0x1b, 0x98, 0x63, 0x0c,
   0x00, 0x00, 0x06, 0xf7, 0x1b, 0xdc, 0xe1, 0x0e, 0x00, 0x00, 0x07, 0x07,
   0x7b, 0xd8, 0xf1, 0x0c, 0x00, 0x00, 0x0f, 0x03, 0xfb, 0xf8, 0x71, 0x0e,
   0x00, 0x80, 0x07, 0x03, 0xf7, 0xf8, 0xf1, 0x1d, 0x00, 0x00, 0x87, 0x07,
   0x7f, 0xf8, 0xe1, 0x1f, 0x00, 0x00, 0x9e, 0x03, 0x1e, 0x20, 0x00, 0x16,
   0x00, 0x00, 0xdc, 0x03, 0x00, 0x00, 0x00, 0x00, 0x00, 0x00, 0xf8, 0x03,
   0x00, 0x00, 0x00, 0x00, 0x00, 0x00, 0xf0, 0x00, 0x00, 0x00, 0x00, 0x00,
   0x00, 0x00, 0x00, 0x00, 0x00, 0x00, 0x00, 0x00 };
